<svg xmlns="http://www.w3.org/2000/svg" viewBox="0 0 128 128">
  <defs>
    <linearGradient id="r" x1="14" y1="14" x2="112" y2="112" gradientUnits="userSpaceOnUse"><stop stop-color="#22d3ee"/><stop offset=".48" stop-color="#2563eb"/><stop offset="1" stop-color="#a855f7"/></linearGradient>
    <linearGradient id="p" x1="22" y1="60" x2="98" y2="60" gradientUnits="userSpaceOnUse"><stop stop-color="#22d3ee"/><stop offset="1" stop-color="#e0f2fe"/></linearGradient>
  </defs>
  <rect width="128" height="128" rx="28" fill="#020617"/>
  <path d="M64 16c-26 0-47 18.7-47 41.6 0 12.8 6.6 24.2 17 31.8l-5 19.9 21.6-11c4.2 1 8.8 1.5 13.4 1.5 26 0 47-18.7 47-42.2S90 16 64 16Z" fill="#020617" stroke="url(#r)" stroke-width="8" stroke-linecap="round" stroke-linejoin="round"/>
  <path d="M30 62h22l8-24 14 48 8-24h16" fill="none" stroke="url(#p)" stroke-width="8" stroke-linecap="round" stroke-linejoin="round"/>
  <circle cx="44" cy="84" r="5" fill="#22c55e"/><circle cx="63" cy="90" r="5" fill="#f59e0b"/><circle cx="82" cy="84" r="5" fill="#f43f5e"/>
</svg>
